<?xml version="1.0" standalone="no"?>
<!DOCTYPE svg PUBLIC "-//W3C//DTD SVG 20010904//EN" "http://www.w3.org/TR/2001/REC-SVG-20010904/DTD/svg10.dtd">
<!-- Created using Krita: https://krita.org -->
<svg xmlns="http://www.w3.org/2000/svg" 
    xmlns:xlink="http://www.w3.org/1999/xlink"
    xmlns:krita="http://krita.org/namespaces/svg/krita"
    xmlns:sodipodi="http://sodipodi.sourceforge.net/DTD/sodipodi-0.dtd"
    width="1474.56pt"
    height="1474.56pt"
    viewBox="0 0 1474.56 1474.56">
<defs/>
<path id="shape0" transform="translate(584.459997540451, 561.059997659522)" fill="#ffffff" fill-rule="evenodd" stroke="none" stroke-width="0.72" stroke-linecap="square" stroke-linejoin="bevel" d="M0.36 88.2L152.82 0L306 88.02L306.54 262.98L152.82 352.62L0 264.96Z" sodipodi:nodetypes="ccccccc"/><path id="shape1" transform="translate(220.589999079817, 561.329997658433)" fill="#ffffff" fill-rule="evenodd" stroke="none" stroke-width="0.72" stroke-linecap="square" stroke-linejoin="bevel" d="M168.75 0L0 175.95L168.93 352.53L288.9 247.86L288.9 104.22Z" sodipodi:nodetypes="cccccc"/><path id="shape2" transform="matrix(0.5 0.866025403784438 -0.866025403784438 0.5 631.312193828213 201.838308237964)" fill="#ffffff" fill-rule="evenodd" stroke="none" stroke-width="0.72" stroke-linecap="square" stroke-linejoin="bevel" d="M168.75 0L0 175.95L168.93 352.53L288.9 247.86L288.9 104.22Z" sodipodi:nodetypes="cccccc"/><path id="shape3" transform="matrix(-0.5 0.866025403784438 -0.866025403784438 -0.5 1148.00221890079 377.788338494915)" fill="#ffffff" fill-rule="evenodd" stroke="none" stroke-width="0.72" stroke-linecap="square" stroke-linejoin="bevel" d="M168.75 0L0 175.95L168.93 352.53L288.9 247.86L288.9 104.22Z" sodipodi:nodetypes="cccccc"/><path id="shape4" transform="matrix(-1 2.77555756156289e-16 -2.77555756156289e-16 -1 1253.97003055629 913.230024223782)" fill="#ffffff" fill-rule="evenodd" stroke="none" stroke-width="0.72" stroke-linecap="square" stroke-linejoin="bevel" d="M168.75 0L0 175.95L168.93 352.53L288.9 247.86L288.9 104.22Z" sodipodi:nodetypes="cccccc"/><path id="shape5" transform="matrix(-0.5 -0.866025403784438 0.866025403784438 -0.5 843.247812078266 1272.72170734346)" fill="#ffffff" fill-rule="evenodd" stroke="none" stroke-width="0.72" stroke-linecap="square" stroke-linejoin="bevel" d="M168.75 0L0 175.95L168.93 352.53L288.9 247.86L288.9 104.22Z" sodipodi:nodetypes="cccccc"/><path id="shape6" transform="matrix(0.499999999999999 -0.866025403784438 0.866025403784438 0.499999999999999 326.557747638533 1096.77165338565)" fill="#ffffff" fill-rule="evenodd" stroke="none" stroke-width="0.72" stroke-linecap="square" stroke-linejoin="bevel" d="M168.75 0L0 175.95L168.93 352.53L288.9 247.86L288.9 104.22Z" sodipodi:nodetypes="cccccc"/>
</svg>
